<svg width="0" height="0" viewBox="0 0 31 25">

<symbol id="logo" width="31" height="25" viewBox="0 0 31 25" fill="none" xmlns="http://www.w3.org/2000/svg">
<path d="M26.2428 2.86764C24.267 1.96104 22.1482 1.2931 19.9329 0.91054C19.8925 0.903157 19.8522 0.921608 19.8314 0.958511C19.5589 1.44316 19.2571 2.07543 19.0457 2.57239C16.663 2.21568 14.2925 2.21568 11.9587 2.57239C11.7473 2.06439 11.4345 1.44316 11.1607 0.958511C11.14 0.922839 11.0997 0.904388 11.0593 0.91054C8.84522 1.29188 6.72643 1.95982 4.74937 2.86764C4.73226 2.87501 4.71759 2.88733 4.70785 2.90331C0.688964 8.90744 -0.411977 14.764 0.128108 20.5479C0.130551 20.5762 0.146436 20.6033 0.168431 20.6205C2.81998 22.5677 5.38846 23.7499 7.90924 24.5334C7.94958 24.5458 7.99232 24.531 8.018 24.4978C8.61429 23.6835 9.14583 22.8249 9.60157 21.9219C9.62847 21.8691 9.6028 21.8063 9.54783 21.7854C8.70471 21.4656 7.9019 21.0756 7.12965 20.6328C7.06857 20.5971 7.06368 20.5098 7.11987 20.468C7.28238 20.3462 7.44493 20.2195 7.60011 20.0915C7.62818 20.0682 7.6673 20.0632 7.70031 20.078C12.7737 22.3943 18.2662 22.3943 23.2796 20.078C23.3127 20.062 23.3518 20.067 23.3811 20.0903C23.5363 20.2183 23.6988 20.3462 23.8625 20.468C23.9187 20.5098 23.9151 20.5971 23.854 20.6328C23.0817 21.0842 22.2789 21.4656 21.4346 21.7842C21.3796 21.8051 21.3552 21.8691 21.3821 21.9219C21.8476 22.8236 22.3791 23.6822 22.9644 24.4966C22.9889 24.531 23.0328 24.5458 23.0732 24.5334C25.6062 23.7499 28.1746 22.5677 30.8262 20.6205C30.8494 20.6033 30.8641 20.5775 30.8665 20.5492C31.5129 13.8623 29.7839 8.05376 26.2831 2.90453C26.2746 2.88733 26.2599 2.87501 26.2428 2.86764ZM10.3592 17.0261C8.83177 17.0261 7.57321 15.6238 7.57321 13.9017C7.57321 12.1795 8.80736 10.7772 10.3592 10.7772C11.9232 10.7772 13.1696 12.1918 13.1451 13.9017C13.1451 15.6238 11.911 17.0261 10.3592 17.0261ZM20.6599 17.0261C19.1325 17.0261 17.8739 15.6238 17.8739 13.9017C17.8739 12.1795 19.1081 10.7772 20.6599 10.7772C22.2239 10.7772 23.4703 12.1918 23.4459 13.9017C23.4459 15.6238 22.2239 17.0261 20.6599 17.0261Z" fill="white"/>
</symbol>

<symbol id="bars" width="24" height="20" viewBox="0 0 24 20" fill="none" xmlns="http://www.w3.org/2000/svg">
<path fill-rule="evenodd" clip-rule="evenodd" d="M0.799999 1.9999C0.799999 1.57556 0.96857 1.16859 1.26863 0.868532C1.56869 0.568474 1.97565 0.399902 2.4 0.399902H21.6C22.0243 0.399902 22.4313 0.568474 22.7314 0.868532C23.0314 1.16859 23.2 1.57556 23.2 1.9999C23.2 2.42425 23.0314 2.83121 22.7314 3.13127C22.4313 3.43133 22.0243 3.5999 21.6 3.5999H2.4C1.97565 3.5999 1.56869 3.43133 1.26863 3.13127C0.96857 2.83121 0.799999 2.42425 0.799999 1.9999ZM0.799999 9.9999C0.799999 9.57556 0.96857 9.16859 1.26863 8.86853C1.56869 8.56847 1.97565 8.3999 2.4 8.3999H21.6C22.0243 8.3999 22.4313 8.56847 22.7314 8.86853C23.0314 9.16859 23.2 9.57556 23.2 9.9999C23.2 10.4242 23.0314 10.8312 22.7314 11.1313C22.4313 11.4313 22.0243 11.5999 21.6 11.5999H2.4C1.97565 11.5999 1.56869 11.4313 1.26863 11.1313C0.96857 10.8312 0.799999 10.4242 0.799999 9.9999ZM0.799999 17.9999C0.799999 17.5756 0.96857 17.1686 1.26863 16.8685C1.56869 16.5685 1.97565 16.3999 2.4 16.3999H12C12.4243 16.3999 12.8313 16.5685 13.1314 16.8685C13.4314 17.1686 13.6 17.5756 13.6 17.9999C13.6 18.4242 13.4314 18.8312 13.1314 19.1313C12.8313 19.4313 12.4243 19.5999 12 19.5999H2.4C1.97565 19.5999 1.56869 19.4313 1.26863 19.1313C0.96857 18.8312 0.799999 18.4242 0.799999 17.9999Z" fill="#9CA3AF"/>
</symbol>

<symbol id="plus" width="8" height="8" viewBox="0 0 8 8" fill="none" xmlns="http://www.w3.org/2000/svg">
<path fill-rule="evenodd" clip-rule="evenodd" d="M4 0C4.21217 0 4.41566 0.0842856 4.56569 0.234315C4.71571 0.384344 4.8 0.587827 4.8 0.8V3.2H7.2C7.41217 3.2 7.61566 3.28429 7.76569 3.43431C7.91571 3.58434 8 3.78783 8 4C8 4.21217 7.91571 4.41566 7.76569 4.56569C7.61566 4.71571 7.41217 4.8 7.2 4.8H4.8V7.2C4.8 7.41217 4.71571 7.61566 4.56569 7.76569C4.41566 7.91571 4.21217 8 4 8C3.78783 8 3.58434 7.91571 3.43431 7.76569C3.28429 7.61566 3.2 7.41217 3.2 7.2V4.8H0.8C0.587827 4.8 0.384344 4.71571 0.234315 4.56569C0.0842856 4.41566 0 4.21217 0 4C0 3.78783 0.0842856 3.58434 0.234315 3.43431C0.384344 3.28429 0.587827 3.2 0.8 3.2H3.2V0.8C3.2 0.587827 3.28429 0.384344 3.43431 0.234315C3.58434 0.0842856 3.78783 0 4 0Z" fill="white"/>
</symbol>

<symbol id="bell" width="18" height="20" viewBox="0 0 18 20" fill="none" xmlns="http://www.w3.org/2000/svg">
<path d="M9.00002 0.399902C7.09047 0.399902 5.25912 1.15847 3.90886 2.50873C2.55859 3.859 1.80002 5.69034 1.80002 7.5999V11.9031L0.951625 12.7515C0.783854 12.9193 0.669606 13.1331 0.623325 13.3659C0.577044 13.5986 0.600808 13.8398 0.691612 14.0591C0.782416 14.2783 0.936183 14.4657 1.13347 14.5976C1.33077 14.7294 1.56272 14.7999 1.80002 14.7999H16.2C16.4373 14.7999 16.6693 14.7294 16.8666 14.5976C17.0639 14.4657 17.2176 14.2783 17.3084 14.0591C17.3992 13.8398 17.423 13.5986 17.3767 13.3659C17.3304 13.1331 17.2162 12.9193 17.0484 12.7515L16.2 11.9031V7.5999C16.2 5.69034 15.4415 3.859 14.0912 2.50873C12.7409 1.15847 10.9096 0.399902 9.00002 0.399902ZM9.00002 19.5999C8.04525 19.5999 7.12957 19.2206 6.45444 18.5455C5.77931 17.8704 5.40002 16.9547 5.40002 15.9999H12.6C12.6 16.9547 12.2207 17.8704 11.5456 18.5455C10.8705 19.2206 9.9548 19.5999 9.00002 19.5999Z" fill="#9CA3AF"/>
</symbol>

<symbol id="home" width="16" height="20" viewBox="0 0 16 20" fill="none" xmlns="http://www.w3.org/2000/svg">
<path fill-rule="evenodd" clip-rule="evenodd" d="M3.2 0.399902C2.56348 0.399902 1.95303 0.652759 1.50294 1.10285C1.05286 1.55293 0.799999 2.16338 0.799999 2.7999V17.1999C0.799999 17.8364 1.05286 18.4469 1.50294 18.897C1.95303 19.347 2.56348 19.5999 3.2 19.5999H12.8C13.4365 19.5999 14.047 19.347 14.4971 18.897C14.9471 18.4469 15.2 17.8364 15.2 17.1999V6.8967C15.1999 6.26024 14.9469 5.64989 14.4968 5.1999L10.4 1.1031C9.95002 0.652984 9.33967 0.400038 8.7032 0.399902H3.2ZM5.6 12.3999C5.6 12.0816 5.47357 11.7764 5.24853 11.5514C5.02348 11.3263 4.71826 11.1999 4.4 11.1999C4.08174 11.1999 3.77652 11.3263 3.55147 11.5514C3.32643 11.7764 3.2 12.0816 3.2 12.3999V15.9999C3.2 16.3182 3.32643 16.6234 3.55147 16.8484C3.77652 17.0735 4.08174 17.1999 4.4 17.1999C4.71826 17.1999 5.02348 17.0735 5.24853 16.8484C5.47357 16.6234 5.6 16.3182 5.6 15.9999V12.3999ZM8 8.7999C8.31826 8.7999 8.62348 8.92633 8.84853 9.15137C9.07357 9.37642 9.2 9.68164 9.2 9.9999V15.9999C9.2 16.3182 9.07357 16.6234 8.84853 16.8484C8.62348 17.0735 8.31826 17.1999 8 17.1999C7.68174 17.1999 7.37652 17.0735 7.15147 16.8484C6.92643 16.6234 6.8 16.3182 6.8 15.9999V9.9999C6.8 9.68164 6.92643 9.37642 7.15147 9.15137C7.37652 8.92633 7.68174 8.7999 8 8.7999ZM12.8 7.5999C12.8 7.28164 12.6736 6.97642 12.4485 6.75137C12.2235 6.52633 11.9183 6.3999 11.6 6.3999C11.2817 6.3999 10.9765 6.52633 10.7515 6.75137C10.5264 6.97642 10.4 7.28164 10.4 7.5999V15.9999C10.4 16.3182 10.5264 16.6234 10.7515 16.8484C10.9765 17.0735 11.2817 17.1999 11.6 17.1999C11.9183 17.1999 12.2235 17.0735 12.4485 16.8484C12.6736 16.6234 12.8 16.3182 12.8 15.9999V7.5999Z" fill="#4B5563"/>
</symbol>

<symbol id="report" width="20" height="20" viewBox="0 0 20 20" fill="none" xmlns="http://www.w3.org/2000/svg">
<path d="M0.4 9.9999C0.4 7.45382 1.41143 5.01203 3.21177 3.21168C5.01212 1.41133 7.45392 0.399902 10 0.399902V9.9999H19.6C19.6 12.546 18.5886 14.9878 16.7882 16.7881C14.9879 18.5885 12.5461 19.5999 10 19.5999C7.45392 19.5999 5.01212 18.5885 3.21177 16.7881C1.41143 14.9878 0.4 12.546 0.4 9.9999Z" fill="#4B5563"/>
</symbol>

<symbol id="transfer" width="24" height="24" viewBox="0 0 24 24" fill="none" xmlns="http://www.w3.org/2000/svg">
<path d="M10.4484 8.7515C10.2221 8.53291 9.91896 8.41196 9.60432 8.41469C9.28968 8.41743 8.98871 8.54363 8.76622 8.76612C8.54373 8.98861 8.41752 9.28959 8.41479 9.60422C8.41206 9.91886 8.53301 10.222 8.7516 10.4483L11.1516 12.8483C11.3766 13.0733 11.6818 13.1996 12 13.1996C12.3182 13.1996 12.6234 13.0733 12.8484 12.8483L15.2484 10.4483C15.467 10.222 15.5879 9.91886 15.5852 9.60422C15.5825 9.28959 15.4563 8.98861 15.2338 8.76612C15.0113 8.54363 14.7103 8.41743 14.3957 8.41469C14.081 8.41196 13.7779 8.53291 13.5516 8.7515L13.2 9.1031V3.5999C13.2 3.28164 13.0736 2.97642 12.8485 2.75137C12.6235 2.52633 12.3183 2.3999 12 2.3999C11.6817 2.3999 11.3765 2.52633 11.1515 2.75137C10.9264 2.97642 10.8 3.28164 10.8 3.5999V9.1031L10.4484 8.7515Z" fill="#4B5563"/>
<path d="M3.6 6.0001C3.6 5.36358 3.85286 4.75313 4.30294 4.30304C4.75303 3.85295 5.36348 3.6001 6 3.6001H7.2C7.51826 3.6001 7.82348 3.72653 8.04853 3.95157C8.27357 4.17661 8.4 4.48184 8.4 4.8001C8.4 5.11836 8.27357 5.42358 8.04853 5.64863C7.82348 5.87367 7.51826 6.0001 7.2 6.0001H6V14.4001H8.4L9.6 16.8001H14.4L15.6 14.4001H18V6.0001H16.8C16.4817 6.0001 16.1765 5.87367 15.9515 5.64863C15.7264 5.42358 15.6 5.11836 15.6 4.8001C15.6 4.48184 15.7264 4.17661 15.9515 3.95157C16.1765 3.72653 16.4817 3.6001 16.8 3.6001H18C18.6365 3.6001 19.247 3.85295 19.6971 4.30304C20.1471 4.75313 20.4 5.36358 20.4 6.0001V18.0001C20.4 18.6366 20.1471 19.2471 19.6971 19.6972C19.247 20.1472 18.6365 20.4001 18 20.4001H6C5.36348 20.4001 4.75303 20.1472 4.30294 19.6972C3.85286 19.2471 3.6 18.6366 3.6 18.0001V6.0001Z" fill="#4B5563"/>
</symbol>

<symbol id="setting" width="18" height="20" viewBox="0 0 18 20" fill="none" xmlns="http://www.w3.org/2000/svg">
<path fill-rule="evenodd" clip-rule="evenodd" d="M8.99999 0.399902C6.34919 0.399902 4.19999 2.5491 4.19999 5.1999V6.3999H2.99999C2.38799 6.3999 1.8744 6.85952 1.8072 7.46792L0.607203 18.2679C0.570003 18.6063 0.677994 18.9459 0.905994 19.2003C1.13399 19.4547 1.45919 19.5999 1.79999 19.5999H16.2C16.5408 19.5999 16.866 19.4547 17.094 19.2003C17.322 18.9459 17.43 18.6063 17.3928 18.2679L16.1928 7.46792C16.1256 6.85952 15.612 6.3999 15 6.3999H13.8V5.1999C13.8 2.5491 11.6508 0.399902 8.99999 0.399902ZM11.4 6.3999V5.1999C11.4 3.8739 10.326 2.7999 8.99999 2.7999C7.67399 2.7999 6.59999 3.8739 6.59999 5.1999V6.3999H11.4ZM4.19999 9.9999C4.19999 9.3375 4.73759 8.7999 5.39999 8.7999C6.06239 8.7999 6.59999 9.3375 6.59999 9.9999C6.59999 10.6623 6.06239 11.1999 5.39999 11.1999C4.73759 11.1999 4.19999 10.6623 4.19999 9.9999ZM12.6 8.7999C11.9376 8.7999 11.4 9.3375 11.4 9.9999C11.4 10.6623 11.9376 11.1999 12.6 11.1999C13.2624 11.1999 13.8 10.6623 13.8 9.9999C13.8 9.3375 13.2624 8.7999 12.6 8.7999Z" fill="white"/>
</symbol>



</svg>